<?xml version="1.0" encoding="utf-8"?>
<!-- Generator: Adobe Illustrator 26.3.1, SVG Export Plug-In . SVG Version: 6.00 Build 0)  -->
<svg version="1.1" id="Layer_1" xmlns="http://www.w3.org/2000/svg" xmlns:xlink="http://www.w3.org/1999/xlink" x="0px" y="0px"
	 viewBox="0 0 1620 746" style="enable-background:new 0 0 1620 746;" xml:space="preserve">
<style type="text/css">
	.st0{fill:#FFFFFF;}
	.st1{fill:#8B6636;}
</style>
<path class="st0" d="M300,561.2c0.1,0.4,0.2,0.7,0.3,1c-0.2-0.7-0.4-1.4-0.5-2.2C299.8,560.4,299.9,560.8,300,561.2z"/>
<g>
	<path class="st1" d="M292,613.4c0,0,19.7-24.8,34.2-27.1c0,0,11-2.8,20.7,11.5c0,0,8.2,18.4,9.7,24.5c0,0,3.3,10.3,17.5,7.1
		c0,0,11.1-4.5,8.2-18.3c0,0-10.4-40.5-41.7-50.6c0,0-27.5-13.1-62.8,27.4c0,0-20.2,16.8-8,26.8C269.8,614.8,278.9,627.4,292,613.4z
		"/>
	<path class="st1" d="M417.8,607.5c0,0-35-23.5-44.7-57.4c0,0-10.6-39.6,4.8-59.3c0,0,7.8-17.4,22.5-3.9c0,0,8.5,6,0.2,18.2
		c0,0-8,20.8,1.4,43.2c0,0,10,21.6,33.1,38.3c0,0,12.2,6.2,3.9,18.8C438.9,605.5,429.6,617.8,417.8,607.5z"/>
	<path class="st1" d="M389.1,452.7C389.1,452.7,389.1,452.7,389.1,452.7c-13,19.7-36.9,50-78.7,86.7c0,0-49.5,42.6-81.9,66.1
		c0,0-9,8-16.7-5.7c0,0-6.9-10.8,2.7-17c0,0,130-91.3,165-168.6c0,0,18.7-42.4-9.7-64.5c0,0-23.5-18.7-47.9,0.3l0,0
		c-4.1,4.8-6.4,6.5-7.4,7c0,0,0,0,0,0c0,0,0,0.1-0.1,0.1c-8.8,5.1-16.5-1.7-16.5-1.7c-7.4-6.8-4.1-14.7-1.3-18.8
		c7.8-8.5,18.9-16.9,34.2-20.5c0,0,1.2-0.3,3.4-0.6c1.5-0.3,1.3-3.8,0.8-6c-1.2-4.7-1.8-12.2-7.4-16.8c-7.4,1.4-26.2,6.6-45.2,26.1
		c0,0,0,0,0,0l0,0c-18.3,23.8-14.7,40.2-6,50.7c0.3,0.4,0.7,0.8,1,1.2c7,7.8,16.4,12,20.7,13.7l0.3,0.1c0,0,0.5,0.1,1.5,0.3
		c0.4,0.1,0.8,0.2,1.3,0.2c0,0,0,0,0,0c6.5,1.1,23.3,2.4,35.1-9.5l0,0c2.7-3.7,7.4-7,15.1-4.6c0,0,14.8,5,6.9,22.2
		c0,0-24.2,72.1-170.4,178.3c0,0-7.9,3.7-13.5-2.3c0,0,0,0-0.1-0.1c0,0-0.1-0.1-0.1-0.1c-0.2-0.3-0.7-0.9-1.4-1.9
		c0,0-0.1-0.1-0.1-0.1c0-0.1-0.1-0.1-0.1-0.2c0,0-0.1-0.1-0.1-0.1c-1.6-2.2-4-5.7-6.8-10.3c0,0,0,0,0,0c-0.1-0.2-0.2-0.3-0.3-0.5
		c0,0,0,0,0-0.1c0-0.1-0.1-0.1-0.1-0.2c-1.2-2.2-3.9-8.1,1.1-10.5c42.4-20,82.4-55.4,110.8-84.7c0,0,0,0,0,0c0,0,0,0,0,0
		c25.9-26.7,42.3-48.2,42.3-48.2c1.8-3.6,1.4-5.1,0.1-5.4c-2.8-0.8-9.9,3.5-9.9,3.5c-7.9,2.8-16.5,2.3-24.3,0.3
		c-1.1-0.3-2.3-0.6-3.4-0.9c-5.9-1.8-11.3-4.3-15.6-6.6c-2.3-1.3-4.3-2.5-5.9-3.4c-2.3-1.4-3.6-2.4-3.6-2.4
		c-5.7-5.2-9.7-10.8-12.4-16.6c-2.1-4.6-3.5-9.3-4.2-13.9c-4.1-26,10.5-51.4,11.4-52.9c0,0,0,0,0-0.1l0,0c16.4-22,41.7-45.2,76.9-48
		c0,0,0.1,0,0.3,0c0.7,0,1.4-0.1,2.1-0.1c0,0,0,0,0,0h0c1.8,0,4.3,0.2,7,1.1c1.3,0.5,2.4,1.1,3.5,1.7c0,0,0,0,0,0
		c5.4,2.9,9,6.9,11.5,11.3c1.5,2.7,2.5,5.5,3.2,8.3c0.4,1.6,0.7,3.1,0.8,4.7c1.5,11.6-1.7,22.4-1.7,22.6h0c0,0,0,0,0,0l0,0
		c1.6,0.2,3.4,0.5,5.3,0.9c6.2,1.3,13.5,3.9,21.1,8.9c7.9,5.2,16,13,23.2,24.7c0,0,3.4,7,4.7,19.9c0.3,2.6,0.5,5.5,0.5,8.6
		C410.3,395.6,406.2,421.1,389.1,452.7z"/>
	<path class="st1" d="M337.8,266.3c1.2,0.4,2.4,0.9,3.5,1.7C340.2,267.3,339,266.8,337.8,266.3z"/>
	<path class="st1" d="M354.4,313.6c0.1,0.3,0.2,0.5,0.4,0.8C354.7,314.2,354.6,314,354.4,313.6z"/>
	<path class="st1" d="M355.1,314.9L355.1,314.9C355.1,314.9,355.1,314.9,355.1,314.9L355.1,314.9z"/>
	<path class="st1" d="M504.2,569.6c0,0-3.1,13.1-19.9,7.3c0,0-51.4-11.6-64-84.4c0,0-2.8-19.6,0-45c0,0,2.6-21.2,8-45.4
		c0,0,0.8-3.9,1.4-10c0.3-2.5,0.6-5.5,0.7-8.6c0.2-4,0.4-8.3,0.2-12.8l0,0c-1.1-65.9-53.6-75.2-55.3-75.4c0,0,0,0,0,0
		c-1.5-1.2-4-4.6-3.5-13.5c0-0.2,0-0.5,0.1-0.7c0.3-3.7,1.1-6.3,2.1-8.2c1.4-2.6,3.2-3.7,4.3-4.2c13.4,4.1,28.4,11.4,43.2,24
		c0,0,23.8,19.4,32.7,48.7c0,0,0,0,0,0c2.7,7.3,3.2,18,3.2,23.3c0,1.7,0,2.8,0,3.1c0,0.1,0,0.1,0,0.1c-0.2,9-1.5,41.8-10.4,78.2
		c0,0-9.4,57.2,19.7,87.6c0,0,9.6,11,27,16.8C493.8,550.5,510,554.4,504.2,569.6z"/>
	<path class="st1" d="M457.7,364.6c0,0.3,0,0.6,0,0.9c0,0,0,0.7,0,2.1v0.1c0,0.1,0,0.1,0,0.1C457.6,367.5,457.6,366.4,457.7,364.6
		C457.6,364.7,457.7,364.7,457.7,364.6z"/>
	<path class="st1" d="M226,415.2L226,415.2c-21.2,17.4-57.8,38.9-76.6,49.6c0,0-7.7,1.4-7.2-9.9v-0.1c0-0.5,0.1-1,0.1-1.4
		c0.5-7,1.1-11.6,1.2-12.3v0c0,0,0,0,0,0c0,0,0,0,0,0c0.1-2.1,0.8-4.4,2.5-6.9c0,0,0.9-1.6,7.3-6.5c0,0,24.5-13.5,46.3-34.2
		c0,0,0,0,0,0c0,0,0.2-0.2,0.4-0.4c0.1-0.1,0.1-0.1,0.2-0.2c0.6-0.6,1.2-1.2,1.9-1.8c0.1-0.1,0.2-0.2,0.3-0.3
		c4.9-4.6,15-13.6,18.5-12.2c0,0,8.3-1.3,12.5,14.8C233.2,393.4,236.6,405.9,226,415.2z"/>
	<path class="st1" d="M144.8,508.8c-0.2-0.7-0.4-1.4-0.5-2.2c0.1,0.4,0.1,0.8,0.2,1.1C144.6,508.1,144.7,508.5,144.8,508.8z"/>
	<path class="st1" d="M174.2,569c-0.5-0.5-1-1.2-1.4-1.9C173.5,568.1,174,568.7,174.2,569z"/>
	<path class="st1" d="M515.1,539.9c0,0-29.3-20.9-43.1-59.2c0,0-7.1-16.7-0.9-50.5c0,0,10.2-62.3,9.2-77.6c0,0,3.1-38.4-47.5-82.8
		c0,0-33.4-31.9-102.1-28.3c0,0-44.2,2-75.6,37.8c0,0-23,21.6-43.4,58.9c0,0-13.5,24.6-47.7,44.5c0,0-9.4,5.9-16.6-4.2
		c0,0-7.4-11.5,1.1-16.8c0,0,35.9-20.8,47.1-48.1c0,0,46.5-93.4,135-99.6c0,0,83.5-10.2,131.7,46.5c0,0,40.7,33,45.4,91.9
		c0,0-0.7,42.9-7.7,73c0,0-10.2,40.7,1.7,57.5c0,0,15.3,23.3,30.2,36.4c0,0,6.4,6.6-2,16.4C530.2,535.6,523.5,543.6,515.1,539.9z"/>
	<path class="st1" d="M515.5,468.6c0,0-3.3,11.6,9.4,16.5c0,0,14.4,4.1,18-10.6c0,0,9.9-34.8,8.5-89.3c0,0-0.3-74.4-22-82.4
		c0,0-16.8-1.5-18.2,12.1c0,0,0.8,7.1,6.1,16.5C517.3,331.5,536.1,374.7,515.5,468.6z"/>
	<path class="st1" d="M155,305.1c0,0,10.9,8.8,19.4,0c0,0,55.8-101.4,140.4-111.8c0,0,78.6-18.7,143.6,34.4c0,0,39.1,31.4,49.8,50.5
		c0,0,5.1,11,18.4,4.1c0,0,14-5.9,2.3-23.2c0,0-60.6-87.9-165.8-94.7c0,0-79-6.8-138.9,38.5c0,0-31.6,20-71.6,84.6
		C152.6,287.4,146.9,299.1,155,305.1z"/>
	<path class="st1" d="M191.7,208.1c0,0,43.8-60.8,139-66.2c0,0,66.1-7.9,128.9,28.8c0,0,35.1,23,36.4,25c0,0,9.6,5.5,16.8-5.2
		c0,0,7.6-11-4.4-19.7c0,0-56.2-58.2-163.2-54.7c0,0-96.1-6.7-157,57.9c0,0-23.1,16.6-17.7,29.4C170.6,203.4,178.7,218,191.7,208.1z
		"/>
	<path class="st1" d="M263,445.4C262.9,445.4,262.9,445.5,263,445.4c-17.6,22.5-81.8,64.2-105.3,79.1c-4.9,2.8-7.5,0.3-7.8,0
		c0,0,0,0,0,0c0,0,0,0,0,0c-1.2-3-2.3-6.2-3.3-9.4c-0.1-0.2-0.1-0.4-0.2-0.6c-0.2-0.6-0.3-1.1-0.5-1.6c-0.3-1-0.5-1.7-0.6-2.1
		c0-0.1,0-0.1,0-0.1c0-0.1,0-0.1,0-0.2c0-0.1-0.1-0.3-0.1-0.4c-2.1-8.6,0.8-11.8,2.2-12.9c0.2-0.1,0.5-0.3,0.7-0.4c0,0,0,0,0,0
		c31.8-18.3,85.1-59.6,96-68.1c1.3-1,2-1.6,2-1.6c8-3.1,12.9-1.7,15.9,1.2c2.1,2,3.2,4.7,3.8,6.9c0.1,0.3,0.2,0.7,0.3,1c0,0,0,0,0,0
		C266.1,436.6,266.3,440.7,263,445.4z"/>
</g>
<path class="st1" d="M578.2,444.7C578.2,444.7,578.2,444.8,578.2,444.7c0.1,0.2,0.2,0.4,0.3,0.5
	C578.4,445.1,578.3,444.9,578.2,444.7z M578.2,444.7C578.2,444.7,578.2,444.8,578.2,444.7c0.1,0.2,0.2,0.4,0.3,0.5
	C578.4,445.1,578.3,444.9,578.2,444.7z"/>
<path class="st1" d="M578.2,444.7C578.2,444.7,578.2,444.8,578.2,444.7c0.1,0.2,0.2,0.4,0.3,0.5
	C578.4,445.1,578.3,444.9,578.2,444.7z M578.2,444.7C578.2,444.7,578.2,444.8,578.2,444.7c0.1,0.2,0.2,0.4,0.3,0.5
	C578.4,445.1,578.3,444.9,578.2,444.7z"/>
<path class="st0" d="M523.4,388.9c0.1,0.3,0.2,0.5,0.4,0.8C523.7,389.5,523.5,389.2,523.4,388.9z"/>
<path class="st0" d="M578.5,445.3c-0.1-0.2-0.2-0.3-0.3-0.5c0,0,0-0.1,0-0.1C578.3,444.9,578.4,445.1,578.5,445.3z"/>
<path class="st0" d="M524,390.1L524,390.1C524,390.1,524,390.1,524,390.1L524,390.1z"/>
<path class="st1" d="M523.4,388.9c0.1,0.3,0.2,0.5,0.4,0.8C523.7,389.5,523.5,389.2,523.4,388.9z"/>
<g>
	<path class="st0" d="M651.3,395.5c1.6,3.1,3.7,5.5,6.3,7.4c2.6,1.9,5.7,3.3,9.3,4.2c3.6,0.9,7.2,1.4,11,1.4c2.6,0,5.3-0.2,8.3-0.6
		c2.9-0.4,5.7-1.3,8.3-2.5c2.6-1.2,4.7-2.9,6.4-5.1c1.7-2.1,2.6-4.9,2.6-8.2c0-3.6-1.1-6.4-3.4-8.6c-2.3-2.2-5.2-4-8.9-5.5
		c-3.7-1.5-7.8-2.8-12.5-3.9c-4.7-1.1-9.4-2.3-14.2-3.7c-4.9-1.2-9.7-2.7-14.3-4.5c-4.7-1.8-8.8-4.1-12.5-6.9
		c-3.7-2.8-6.7-6.3-8.9-10.6c-2.3-4.2-3.4-9.3-3.4-15.4c0-6.7,1.4-12.6,4.3-17.6c2.9-5,6.6-9.1,11.3-12.4c4.7-3.3,9.9-5.8,15.8-7.4
		c5.9-1.6,11.8-2.4,17.7-2.4c6.9,0,13.5,0.8,19.8,2.3c6.3,1.5,11.9,4,16.8,7.4c4.9,3.4,8.8,7.8,11.7,13.1c2.9,5.3,4.3,11.8,4.3,19.4
		h-28c-0.2-3.9-1.1-7.2-2.5-9.7c-1.4-2.6-3.3-4.6-5.6-6.1c-2.3-1.5-5-2.5-8-3.1c-3-0.6-6.3-0.9-9.8-0.9c-2.3,0-4.7,0.2-7,0.7
		c-2.3,0.5-4.4,1.4-6.3,2.6c-1.9,1.2-3.5,2.8-4.7,4.6c-1.2,1.8-1.8,4.2-1.8,7c0,2.6,0.5,4.7,1.5,6.3c1,1.6,2.9,3.1,5.8,4.4
		c2.9,1.4,6.9,2.7,12,4c5.1,1.4,11.7,3.1,19.9,5.1c2.5,0.5,5.9,1.4,10.2,2.7c4.3,1.3,8.7,3.3,13,6.2c4.3,2.8,8,6.6,11.1,11.3
		c3.1,4.7,4.7,10.8,4.7,18.1c0,6-1.2,11.6-3.5,16.7c-2.3,5.1-5.8,9.6-10.4,13.3c-4.6,3.7-10.3,6.7-17.1,8.7
		c-6.8,2.1-14.7,3.1-23.6,3.1c-7.2,0-14.2-0.9-21.1-2.7c-6.8-1.8-12.8-4.6-18-8.4c-5.2-3.8-9.3-8.6-12.4-14.5
		c-3.1-5.9-4.5-12.9-4.4-21h28C648.9,388.7,649.7,392.5,651.3,395.5z"/>
	<path class="st0" d="M804.9,427.9v-13.2h-0.6c-3.3,5.5-7.6,9.5-12.9,12c-5.3,2.5-10.7,3.7-16.2,3.7c-7,0-12.7-0.9-17.2-2.8
		c-4.5-1.8-8-4.4-10.6-7.8c-2.6-3.4-4.4-7.5-5.4-12.3c-1-4.8-1.6-10.2-1.6-16.1v-58.5h26.1v53.7c0,7.8,1.2,13.7,3.7,17.6
		c2.5,3.9,6.8,5.8,13.1,5.8c7.1,0,12.3-2.1,15.4-6.3c3.2-4.2,4.8-11.2,4.8-20.9v-49.8h26.1v95.1H804.9z"/>
	<path class="st0" d="M867.7,332.8V345h0.4c3.2-5.1,7.2-8.9,12.1-11.2c4.9-2.3,10.3-3.5,16.2-3.5c7.5,0,13.9,1.4,19.3,4.2
		c5.4,2.8,9.9,6.6,13.4,11.2c3.6,4.7,6.2,10.1,7.9,16.3c1.7,6.2,2.6,12.7,2.6,19.4c0,6.4-0.9,12.5-2.6,18.4
		c-1.7,5.9-4.3,11.1-7.8,15.6c-3.5,4.5-7.8,8.2-13.1,10.8c-5.2,2.7-11.3,4-18.3,4c-5.9,0-11.3-1.2-16.3-3.6c-5-2.4-9-5.9-12.2-10.6
		H869v45h-26.1V332.8H867.7z M901.7,408.2c2.9-1.7,5.2-4,7-6.7c1.8-2.8,3-6,3.8-9.7c0.7-3.7,1.1-7.4,1.1-11.2
		c0-3.8-0.4-7.5-1.2-11.2c-0.8-3.7-2.1-7-4-9.8c-1.8-2.9-4.2-5.2-7.1-7c-2.9-1.8-6.4-2.7-10.6-2.7c-4.3,0-7.9,0.9-10.8,2.7
		c-2.9,1.8-5.2,4.1-7,6.9c-1.8,2.8-3,6.1-3.8,9.7c-0.7,3.7-1.1,7.5-1.1,11.4c0,3.8,0.4,7.5,1.2,11.2c0.8,3.7,2.1,6.9,3.9,9.7
		c1.8,2.8,4.1,5,7.1,6.7c2.9,1.7,6.5,2.6,10.7,2.6C895.2,410.8,898.8,409.9,901.7,408.2z"/>
	<path class="st0" d="M979.2,405.1c3.9,3.8,9.6,5.7,16.9,5.7c5.3,0,9.8-1.3,13.6-4c3.8-2.6,6.1-5.4,7-8.4h23
		c-3.7,11.4-9.3,19.6-16.9,24.5c-7.6,4.9-16.8,7.4-27.6,7.4c-7.5,0-14.2-1.2-20.2-3.6c-6-2.4-11.1-5.8-15.3-10.2
		c-4.2-4.4-7.4-9.7-9.7-15.8c-2.3-6.1-3.4-12.9-3.4-20.2c0-7.1,1.2-13.7,3.5-19.9c2.3-6.1,5.6-11.4,9.9-15.9
		c4.3-4.5,9.4-8,15.4-10.6c5.9-2.6,12.5-3.9,19.8-3.9c8.1,0,15.1,1.6,21.1,4.7c6,3.1,10.9,7.3,14.8,12.6c3.9,5.3,6.6,11.3,8.4,18
		c1.7,6.7,2.3,13.8,1.8,21.1h-68.6C973.2,395.2,975.3,401.3,979.2,405.1z M1008.7,355.1c-3.1-3.4-7.9-5.1-14.2-5.1
		c-4.2,0-7.6,0.7-10.4,2.1c-2.8,1.4-5,3.2-6.6,5.2c-1.7,2.1-2.8,4.3-3.5,6.6c-0.7,2.3-1.1,4.4-1.2,6.2h42.5
		C1014,363.5,1011.9,358.5,1008.7,355.1z"/>
	<path class="st0" d="M1076.3,332.8v17.7h0.4c1.2-2.9,2.9-5.7,5-8.2c2.1-2.5,4.5-4.7,7.2-6.4c2.7-1.8,5.6-3.2,8.6-4.1
		c3.1-1,6.3-1.5,9.6-1.5c1.7,0,3.6,0.3,5.7,0.9v24.3c-1.2-0.2-2.7-0.5-4.4-0.6c-1.7-0.2-3.4-0.3-5-0.3c-4.8,0-8.8,0.8-12.1,2.4
		c-3.3,1.6-6,3.8-8,6.5c-2,2.8-3.5,6-4.3,9.7c-0.9,3.7-1.3,7.7-1.3,12v42.8h-26.1v-95.1H1076.3z"/>
	<path class="st0" d="M1173.9,332.8v17.5h-19.1v47.1c0,4.4,0.7,7.4,2.2,8.8c1.5,1.5,4.4,2.2,8.8,2.2c1.5,0,2.9-0.1,4.2-0.2
		c1.3-0.1,2.6-0.3,3.9-0.6v20.2c-2.2,0.4-4.7,0.6-7.4,0.7c-2.7,0.1-5.3,0.2-7.9,0.2c-4,0-7.9-0.3-11.5-0.8c-3.6-0.6-6.8-1.6-9.6-3.2
		c-2.8-1.6-4.9-3.9-6.5-6.8c-1.6-2.9-2.4-6.8-2.4-11.6v-56.1h-15.8v-17.5h15.8v-28.5h26.1v28.5H1173.9z"/>
	<path class="st0" d="M1224.2,456.2c-5,3.3-12,5-21,5c-2.7,0-5.4-0.1-8-0.3c-2.6-0.2-5.3-0.4-8-0.6v-21.5c2.5,0.2,5,0.5,7.5,0.7
		c2.6,0.2,5.1,0.3,7.7,0.2c3.4-0.4,6-1.7,7.6-4c1.7-2.3,2.5-4.9,2.5-7.7c0-2.1-0.4-4-1.1-5.9l-33.3-89.2h27.8l21.5,65.1h0.4
		l20.8-65.1h27L1236,439.7C1233.2,447.4,1229.2,452.9,1224.2,456.2z"/>
	<path class="st0" d="M1305.4,332.8V345h0.4c3.2-5.1,7.2-8.9,12.1-11.2c4.9-2.3,10.3-3.5,16.2-3.5c7.5,0,13.9,1.4,19.3,4.2
		c5.4,2.8,9.9,6.6,13.4,11.2c3.6,4.7,6.2,10.1,7.9,16.3c1.7,6.2,2.6,12.7,2.6,19.4c0,6.4-0.9,12.5-2.6,18.4
		c-1.7,5.9-4.3,11.1-7.8,15.6c-3.5,4.5-7.8,8.2-13.1,10.8c-5.2,2.7-11.3,4-18.3,4c-5.9,0-11.3-1.2-16.3-3.6c-5-2.4-9-5.9-12.2-10.6
		h-0.4v45h-26.1V332.8H1305.4z M1339.3,408.2c2.9-1.7,5.2-4,7-6.7c1.8-2.8,3-6,3.8-9.7c0.7-3.7,1.1-7.4,1.1-11.2
		c0-3.8-0.4-7.5-1.2-11.2c-0.8-3.7-2.1-7-4-9.8c-1.8-2.9-4.2-5.2-7.1-7c-2.9-1.8-6.4-2.7-10.6-2.7c-4.3,0-7.9,0.9-10.8,2.7
		c-2.9,1.8-5.2,4.1-7,6.9c-1.8,2.8-3,6.1-3.8,9.7c-0.7,3.7-1.1,7.5-1.1,11.4c0,3.8,0.4,7.5,1.2,11.2c0.8,3.7,2.1,6.9,3.9,9.7
		c1.8,2.8,4.1,5,7.1,6.7c2.9,1.7,6.5,2.6,10.7,2.6C1332.8,410.8,1336.4,409.9,1339.3,408.2z"/>
	<path class="st0" d="M1415.5,405.1c3.9,3.8,9.6,5.7,16.9,5.7c5.3,0,9.8-1.3,13.6-4c3.8-2.6,6.1-5.4,7-8.4h23
		c-3.7,11.4-9.3,19.6-16.9,24.5c-7.6,4.9-16.8,7.4-27.6,7.4c-7.5,0-14.2-1.2-20.2-3.6c-6-2.4-11.1-5.8-15.3-10.2
		c-4.2-4.4-7.4-9.7-9.7-15.8c-2.3-6.1-3.4-12.9-3.4-20.2c0-7.1,1.2-13.7,3.5-19.9c2.3-6.1,5.6-11.4,9.9-15.9
		c4.3-4.5,9.4-8,15.4-10.6c5.9-2.6,12.5-3.9,19.8-3.9c8.1,0,15.1,1.6,21.1,4.7c6,3.1,10.9,7.3,14.8,12.6c3.9,5.3,6.6,11.3,8.4,18
		c1.7,6.7,2.3,13.8,1.8,21.1h-68.6C1409.5,395.2,1411.6,401.3,1415.5,405.1z M1445.1,355.1c-3.1-3.4-7.9-5.1-14.2-5.1
		c-4.2,0-7.6,0.7-10.4,2.1c-2.8,1.4-5,3.2-6.6,5.2c-1.7,2.1-2.8,4.3-3.5,6.6c-0.7,2.3-1.1,4.4-1.2,6.2h42.5
		C1450.4,363.5,1448.2,358.5,1445.1,355.1z"/>
</g>
</svg>
