<svg xmlns="http://www.w3.org/2000/svg" width="54" height="65" stroke="none" stroke-linecap="round" stroke-linejoin="round" fill="#fff" fill-rule="nonzero"><path d="M45.4145 18.8073l-4.6465 4.6465c7.7442 7.7441 7.7442 20.3561 0 28.1002s-20.3561 7.7442-28.1003 0-7.7441-20.3561 0-28.1002l12.3907-12.3907 1.5488-1.7701V0L7.7999 18.8073C2.8085 23.7484 0 30.4804 0 37.5039a26.309 26.309 0 0 0 7.7999 18.6967 26.309 26.309 0 0 0 18.6967 7.7999c7.0235 0 13.7555-2.8085 18.6966-7.7999 10.6206-10.3994 10.6206-27.2153.2213-37.3933zm-12.8332-4.8678c0-1.9613 1.5789-3.5402 3.5402-3.5402s3.5402 1.5789 3.5402 3.5402-1.579 3.5402-3.5402 3.5402-3.5402-1.5789-3.5402-3.5402z"/></svg>