<?xml version="1.0" encoding="utf-8"?><!-- Uploaded to: SVG Repo, www.svgrepo.com, Generator: SVG Repo Mixer Tools -->
<svg width="800px" height="800px" viewBox="0 0 24 24" fill="none" xmlns="http://www.w3.org/2000/svg">
<path fill-rule="evenodd" clip-rule="evenodd" d="M7 3C6.44772 3 6 3.44772 6 4V20C6 20.5523 6.44772 21 7 21H15.3077C16.5792 21 17.7807 20.4521 18.6534 19.5067C19.5235 18.564 20 17.3014 20 16C20 14.6986 19.5235 13.436 18.6534 12.4933C18.3297 12.1427 17.9609 11.8468 17.5601 11.6132C17.5949 11.5775 17.6293 11.5411 17.6632 11.5042C18.5276 10.5611 19 9.29936 19 8C19 6.70064 18.5276 5.43887 17.6632 4.49585C16.7961 3.54991 15.6005 3 14.3333 3H7ZM14.3333 11C15.0111 11 15.6807 10.7071 16.1889 10.1527C16.6997 9.59543 17 8.82237 17 8C17 7.17763 16.6997 6.40457 16.1889 5.8473C15.6807 5.29294 15.0111 5 14.3333 5H8V11H14.3333ZM8 13V19H15.3077C15.9947 19 16.6715 18.7051 17.1837 18.1501C17.6985 17.5925 18 16.8203 18 16C18 15.1797 17.6985 14.4075 17.1837 13.8499C16.6715 13.2949 15.9947 13 15.3077 13H8Z" fill="#000000"/>
</svg>