<?xml version="1.0" encoding="utf-8"?><!-- Uploaded to: SVG Repo, www.svgrepo.com, Generator: SVG Repo Mixer Tools -->
<svg width="800px" height="800px" viewBox="0 0 24 24" fill="none" xmlns="http://www.w3.org/2000/svg">
<path d="M15.0234 3.00003H18C18.5523 3.00003 19 3.44774 19 4.00003C19 4.55231 18.5523 5.00003 18 5.00003H15.693L10.443 19H12C12.5523 19 13 19.4477 13 20C13 20.5523 12.5523 21 12 21H9.02307C9.00764 21.0004 8.99218 21.0004 8.97669 21H6C5.44772 21 5 20.5523 5 20C5 19.4477 5.44772 19 6 19H8.30703L13.557 5.00003H12C11.4477 5.00003 11 4.55231 11 4.00003C11 3.44774 11.4477 3.00003 12 3.00003H14.977C14.9924 2.99967 15.0079 2.99966 15.0234 3.00003Z" fill="#000000"/>
</svg>