<?xml version="1.0" encoding="utf-8"?><!-- Uploaded to: SVG Repo, www.svgrepo.com, Generator: SVG Repo Mixer Tools -->
<svg width="800px" height="800px" viewBox="0 0 24 24" fill="none" xmlns="http://www.w3.org/2000/svg">
<path fill-rule="evenodd" clip-rule="evenodd" d="M8 7C5.23858 7 3 9.23858 3 12C3 14.7614 5.23858 17 8 17H10C10.5523 17 11 17.4477 11 18C11 18.5523 10.5523 19 10 19H8C4.13401 19 1 15.866 1 12C1 8.13401 4.13401 5 8 5H10C10.5523 5 11 5.44772 11 6C11 6.55228 10.5523 7 10 7H8ZM13 6C13 5.44772 13.4477 5 14 5H16C19.866 5 23 8.13401 23 12C23 15.866 19.866 19 16 19H14C13.4477 19 13 18.5523 13 18C13 17.4477 13.4477 17 14 17H16C18.7614 17 21 14.7614 21 12C21 9.23858 18.7614 7 16 7H14C13.4477 7 13 6.55228 13 6ZM7 12C7 11.4477 7.44772 11 8 11H16C16.5523 11 17 11.4477 17 12C17 12.5523 16.5523 13 16 13H8C7.44772 13 7 12.5523 7 12Z" fill="#000000"/>
</svg>